<?xml version="1.0" encoding="UTF-8" standalone="no"?>
<!DOCTYPE svg PUBLIC "-//W3C//DTD SVG 1.1//EN" "http://www.w3.org/Graphics/SVG/1.1/DTD/svg11.dtd">
<svg width="100%" height="100%" viewBox="0 0 512 512" version="1.1" xmlns="http://www.w3.org/2000/svg" xmlns:xlink="http://www.w3.org/1999/xlink" xml:space="preserve" xmlns:serif="http://www.serif.com/" style="fill-rule:evenodd;clip-rule:evenodd;stroke-linejoin:round;stroke-miterlimit:2;">
    <path d="M229.255,52.155L42.837,129.286C32.475,133.574 32.581,148.305 43.012,152.436L230.205,226.666C246.647,233.189 264.975,233.189 281.417,226.666L468.617,152.436C479.042,148.305 479.154,133.58 468.785,129.286L282.374,52.15C265.372,45.121 246.257,45.121 229.255,52.15" style="fill:white;fill-rule:nonzero;"/>
    <path d="M272.43,267.185L272.43,452.622C272.43,461.441 281.324,467.485 289.524,464.235L498.116,383.272C500.443,382.352 502.438,380.751 503.841,378.679C505.247,376.611 505.998,374.167 505.998,371.666L505.998,186.23C505.998,177.41 497.104,171.373 488.904,174.623L280.317,255.58C275.564,257.461 272.426,262.08 272.43,267.192" style="fill:white;fill-rule:nonzero;"/>
    <path d="M223.724,276.767L161.818,306.654L155.537,309.691L24.857,372.304C16.574,376.297 6,370.26 6,361.06L6,187.017C6,183.686 7.706,180.811 9.994,178.648C10.935,177.716 12.002,176.919 13.162,176.28C16.282,174.405 20.737,173.905 24.525,175.398L222.686,253.917C232.761,257.91 233.549,272.023 223.724,276.767" style="fill:white;fill-rule:nonzero;"/>
    <path d="M223.711,276.773L161.805,306.66L9.981,178.655C10.919,177.717 11.981,176.923 13.144,176.285C16.262,174.411 20.719,173.911 24.506,175.405L222.668,253.923C232.743,257.917 233.53,272.029 223.711,276.773" style="fill:white;fill-rule:nonzero;"/>
</svg>
